<svg xmlns="http://www.w3.org/2000/svg" xmlns:xlink="http://www.w3.org/1999/xlink" width="500" zoomAndPan="magnify" viewBox="0 0 375 374.999991" height="500" preserveAspectRatio="xMidYMid meet" version="1.0"><defs><g/><clipPath id="1ac226032c"><path d="M 0.324219 1.027344 L 342.800781 1.027344 L 342.800781 185.304688 L 0.324219 185.304688 Z M 0.324219 1.027344 " clip-rule="nonzero"/></clipPath><clipPath id="73ba59d5f4"><path d="M 285.480469 44.878906 L 327.523438 44.878906 L 327.523438 86.921875 L 285.480469 86.921875 Z M 285.480469 44.878906 " clip-rule="nonzero"/></clipPath><clipPath id="7276cd7ee8"><rect x="0" width="255" y="0" height="85"/></clipPath><clipPath id="7af822993f"><rect x="0" width="343" y="0" height="186"/></clipPath></defs><g transform="matrix(1, 0, 0, 1, 16, 81)"><g clip-path="url(#7af822993f)"><g clip-path="url(#1ac226032c)"><path fill="#3d2500" d="M 9.125 1.058594 L 171.496094 9.625 L 333.871094 1.058594 L 334.769531 18.246094 L 342.671875 18.660156 L 341.4375 41.953125 L 337.261719 41.953125 L 338.277344 22.601562 L 335 22.4375 L 336.027344 41.953125 L 331.839844 41.953125 L 330.796875 22.21875 L 171.496094 13.800781 L 12.195312 22.21875 L 11.152344 41.953125 L 6.964844 41.953125 L 7.992188 22.4375 L 4.71875 22.601562 L 5.730469 41.953125 L 1.554688 41.953125 L 0.324219 18.660156 L 8.222656 18.246094 Z M 341.4375 144.53125 L 342.671875 167.824219 L 334.769531 168.234375 L 333.871094 185.425781 L 171.496094 176.855469 L 9.125 185.425781 L 8.222656 168.234375 L 0.324219 167.824219 L 1.554688 144.53125 L 5.730469 144.53125 L 4.71875 163.878906 L 7.992188 164.046875 L 6.964844 144.53125 L 11.152344 144.53125 L 12.195312 164.265625 L 171.496094 172.679688 L 330.796875 164.265625 L 331.839844 144.53125 L 336.027344 144.53125 L 335 164.046875 L 338.277344 163.878906 L 337.261719 144.53125 Z M 211.105469 11.707031 L 330.578125 18.015625 L 329.910156 5.4375 Z M 131.898438 174.773438 L 12.414062 168.464844 L 13.082031 181.042969 Z M 131.886719 11.707031 L 12.414062 18.015625 L 13.082031 5.4375 Z M 211.105469 174.773438 L 330.578125 168.464844 L 329.910156 181.042969 Z M 211.105469 174.773438 " fill-opacity="1" fill-rule="evenodd"/></g><path fill="#3d2500" d="M 300.210938 62.101562 L 300.210938 72.585938 L 296.199219 72.585938 L 296.199219 62.101562 L 293.339844 62.101562 L 293.339844 58.796875 L 303.070312 58.796875 L 303.070312 62.101562 L 300.210938 62.101562 " fill-opacity="1" fill-rule="nonzero"/><path fill="#3d2500" d="M 319.261719 58.796875 L 319.261719 72.585938 L 315.332031 72.585938 L 315.332031 62.726562 L 312.78125 72.585938 L 310.09375 72.585938 L 307.441406 62.726562 L 307.441406 72.585938 L 304.269531 72.585938 L 304.269531 58.796875 L 309.800781 58.796875 L 311.800781 66.121094 L 313.710938 58.796875 L 319.261719 58.796875 " fill-opacity="1" fill-rule="nonzero"/><g clip-path="url(#73ba59d5f4)"><path fill="#3d2500" d="M 306.300781 48.273438 C 296.691406 48.273438 288.875 56.089844 288.875 65.699219 C 288.875 75.304688 296.691406 83.121094 306.300781 83.121094 C 315.910156 83.121094 323.726562 75.304688 323.726562 65.699219 C 323.726562 56.089844 315.910156 48.273438 306.300781 48.273438 Z M 306.300781 86.519531 C 303.492188 86.519531 300.765625 85.964844 298.195312 84.882812 C 295.71875 83.832031 293.492188 82.332031 291.578125 80.417969 C 289.667969 78.507812 288.167969 76.28125 287.117188 73.800781 C 286.03125 71.234375 285.480469 68.507812 285.480469 65.699219 C 285.480469 62.886719 286.03125 60.160156 287.117188 57.59375 C 288.167969 55.113281 289.667969 52.886719 291.578125 50.976562 C 293.492188 49.0625 295.71875 47.5625 298.195312 46.515625 C 300.765625 45.429688 303.492188 44.878906 306.300781 44.878906 C 309.109375 44.878906 311.835938 45.429688 314.40625 46.515625 C 316.886719 47.5625 319.109375 49.0625 321.023438 50.976562 C 322.933594 52.886719 324.433594 55.113281 325.484375 57.59375 C 326.570312 60.160156 327.121094 62.886719 327.121094 65.699219 C 327.121094 68.507812 326.570312 71.234375 325.484375 73.800781 C 324.433594 76.28125 322.933594 78.507812 321.023438 80.417969 C 319.109375 82.332031 316.886719 83.832031 314.40625 84.882812 C 311.835938 85.964844 309.109375 86.519531 306.300781 86.519531 " fill-opacity="1" fill-rule="nonzero"/></g><g transform="matrix(1, 0, 0, 1, 40, 44)"><g clip-path="url(#7276cd7ee8)"><g fill="#3d2500" fill-opacity="1"><g transform="translate(1.114923, 66.500225)"><g><path d="M 19.734375 0 L 4 0 C 3.425781 0 3.140625 -0.257812 3.140625 -0.78125 L 3.140625 -4.125 C 3.140625 -4.65625 3.425781 -4.921875 4 -4.921875 L 8.984375 -4.921875 L 8.984375 -42.140625 L 4 -42.140625 C 3.425781 -42.140625 3.140625 -42.40625 3.140625 -42.9375 L 3.140625 -46.28125 C 3.140625 -46.800781 3.425781 -47.0625 4 -47.0625 L 19.734375 -47.0625 C 20.296875 -47.0625 20.578125 -46.800781 20.578125 -46.28125 L 20.578125 -42.9375 C 20.578125 -42.40625 20.296875 -42.140625 19.734375 -42.140625 L 14.6875 -42.140625 L 14.6875 -4.921875 L 19.734375 -4.921875 C 20.296875 -4.921875 20.578125 -4.65625 20.578125 -4.125 L 20.578125 -0.78125 C 20.578125 -0.257812 20.296875 0 19.734375 0 Z M 19.734375 0 "/></g></g></g><g fill="#3d2500" fill-opacity="1"><g transform="translate(21.826576, 66.500225)"><g><path d="M 24.390625 -3.34375 C 24.554688 -3.164062 24.640625 -2.976562 24.640625 -2.78125 C 24.640625 -2.582031 24.507812 -2.351562 24.25 -2.09375 C 22.332031 -0.394531 19.921875 0.453125 17.015625 0.453125 C 14.109375 0.453125 11.722656 -0.492188 9.859375 -2.390625 C 8.003906 -4.296875 7.078125 -7.0625 7.078125 -10.6875 L 7.078125 -27.859375 L 3.40625 -27.859375 C 2.789062 -27.859375 2.484375 -28.140625 2.484375 -28.703125 L 2.484375 -31.390625 C 2.484375 -31.960938 2.789062 -32.25 3.40625 -32.25 L 7.078125 -32.25 L 7.078125 -38.875 C 7.078125 -39.476562 7.382812 -39.78125 8 -39.78125 L 11.671875 -39.78125 C 12.234375 -39.78125 12.515625 -39.476562 12.515625 -38.875 L 12.515625 -32.25 L 20.84375 -32.25 C 21.457031 -32.25 21.765625 -31.960938 21.765625 -31.390625 L 21.765625 -28.703125 C 21.765625 -28.140625 21.457031 -27.859375 20.84375 -27.859375 L 12.515625 -27.859375 L 12.515625 -10.8125 C 12.515625 -8.625 13.003906 -6.972656 13.984375 -5.859375 C 14.972656 -4.742188 16.285156 -4.1875 17.921875 -4.1875 C 19.566406 -4.1875 20.800781 -4.601562 21.625 -5.4375 C 22.0625 -5.832031 22.457031 -5.8125 22.8125 -5.375 Z M 24.390625 -3.34375 "/></g></g></g><g fill="#3d2500" fill-opacity="1"><g transform="translate(47.585358, 66.500225)"><g><path d="M 15.859375 0 L 3.34375 0 C 2.769531 0 2.484375 -0.257812 2.484375 -0.78125 L 2.484375 -3.609375 C 2.484375 -4.128906 2.769531 -4.390625 3.34375 -4.390625 L 6.953125 -4.390625 L 6.953125 -27.859375 L 3.34375 -27.859375 C 2.769531 -27.859375 2.484375 -28.117188 2.484375 -28.640625 L 2.484375 -31.46875 C 2.484375 -31.988281 2.769531 -32.25 3.34375 -32.25 L 11.609375 -32.25 C 12.128906 -32.25 12.390625 -31.988281 12.390625 -31.46875 L 12.390625 -4.390625 L 15.859375 -4.390625 C 16.429688 -4.390625 16.71875 -4.128906 16.71875 -3.609375 L 16.71875 -0.78125 C 16.71875 -0.257812 16.429688 0 15.859375 0 Z M 12.15625 -41.9375 C 12.875 -41.195312 13.234375 -40.328125 13.234375 -39.328125 C 13.234375 -38.328125 12.875 -37.472656 12.15625 -36.765625 C 11.4375 -36.066406 10.570312 -35.71875 9.5625 -35.71875 C 8.5625 -35.71875 7.703125 -36.066406 6.984375 -36.765625 C 6.265625 -37.472656 5.90625 -38.328125 5.90625 -39.328125 C 5.90625 -40.328125 6.265625 -41.195312 6.984375 -41.9375 C 7.703125 -42.6875 8.5625 -43.0625 9.5625 -43.0625 C 10.570312 -43.0625 11.4375 -42.6875 12.15625 -41.9375 Z M 12.15625 -41.9375 "/></g></g></g><g fill="#3d2500" fill-opacity="1"><g transform="translate(66.789781, 66.500225)"><g><path d="M 37.359375 0 L 31.140625 0 C 29.253906 0 28.3125 -0.914062 28.3125 -2.75 L 28.3125 -19.984375 C 28.3125 -22.523438 27.695312 -24.492188 26.46875 -25.890625 C 25.25 -27.285156 23.460938 -27.984375 21.109375 -27.984375 C 17.742188 -27.984375 15.117188 -26.609375 13.234375 -23.859375 C 13.015625 -23.597656 12.734375 -23.117188 12.390625 -22.421875 L 12.390625 -4.390625 L 15.859375 -4.390625 C 16.429688 -4.390625 16.71875 -4.128906 16.71875 -3.609375 L 16.71875 -0.78125 C 16.71875 -0.257812 16.429688 0 15.859375 0 L 3.34375 0 C 2.769531 0 2.484375 -0.257812 2.484375 -0.78125 L 2.484375 -3.609375 C 2.484375 -4.128906 2.769531 -4.390625 3.34375 -4.390625 L 6.953125 -4.390625 L 6.953125 -27.859375 L 3.34375 -27.859375 C 2.769531 -27.859375 2.484375 -28.117188 2.484375 -28.640625 L 2.484375 -31.46875 C 2.484375 -31.988281 2.769531 -32.25 3.34375 -32.25 L 11.015625 -32.25 C 11.578125 -32.25 11.859375 -31.988281 11.859375 -31.46875 L 11.734375 -27 L 11.921875 -27 C 14.203125 -30.800781 17.722656 -32.703125 22.484375 -32.703125 C 25.972656 -32.703125 28.703125 -31.675781 30.671875 -29.625 C 32.640625 -27.570312 33.644531 -24.796875 33.6875 -21.296875 L 33.6875 -4.390625 L 37.359375 -4.390625 C 37.929688 -4.390625 38.21875 -4.128906 38.21875 -3.609375 L 38.21875 -0.78125 C 38.21875 -0.257812 37.929688 0 37.359375 0 Z M 37.359375 0 "/></g></g></g><g fill="#3d2500" fill-opacity="1"><g transform="translate(106.837164, 66.500225)"><g><path d="M 34.671875 0 L 28.96875 0 C 27.09375 0 26.15625 -0.914062 26.15625 -2.75 L 26.15625 -6.09375 L 26.015625 -6.09375 C 22.828125 -1.675781 18.566406 0.53125 13.234375 0.53125 C 10.085938 0.53125 7.507812 -0.285156 5.5 -1.921875 C 3.488281 -3.566406 2.484375 -5.789062 2.484375 -8.59375 C 2.484375 -12.175781 4.046875 -14.804688 7.171875 -16.484375 C 10.296875 -18.171875 14.59375 -19.015625 20.0625 -19.015625 L 25.5625 -19.015625 L 25.5625 -19.796875 C 25.5625 -25.253906 22.722656 -27.984375 17.046875 -27.984375 C 14.378906 -27.984375 12.453125 -27.734375 11.265625 -27.234375 C 10.085938 -26.734375 9.25 -26.328125 8.75 -26.015625 C 8.25 -25.710938 7.867188 -25.472656 7.609375 -25.296875 C 6.953125 -24.773438 6.46875 -24.734375 6.15625 -25.171875 L 4.328125 -27.46875 C 4.023438 -27.8125 4.066406 -28.160156 4.453125 -28.515625 C 5.203125 -29.472656 6.734375 -30.410156 9.046875 -31.328125 C 11.359375 -32.242188 14.085938 -32.703125 17.234375 -32.703125 C 26.410156 -32.703125 31 -28.332031 31 -19.59375 L 31 -4.390625 L 34.671875 -4.390625 C 35.191406 -4.390625 35.453125 -4.128906 35.453125 -3.609375 L 35.453125 -0.78125 C 35.453125 -0.257812 35.191406 0 34.671875 0 Z M 25.5625 -15.078125 L 20.390625 -15.078125 C 17.847656 -15.078125 15.75 -14.945312 14.09375 -14.6875 C 12.4375 -14.425781 11.023438 -13.859375 9.859375 -12.984375 C 8.703125 -12.109375 8.125 -10.90625 8.125 -9.375 C 8.125 -7.84375 8.742188 -6.582031 9.984375 -5.59375 C 11.234375 -4.613281 12.863281 -4.125 14.875 -4.125 C 19.113281 -4.125 22.675781 -6.003906 25.5625 -9.765625 Z M 25.5625 -15.078125 "/></g></g></g><g fill="#3d2500" fill-opacity="1"><g transform="translate(144.721647, 66.500225)"><g><path d="M 15.859375 0 L 3.34375 0 C 2.769531 0 2.484375 -0.257812 2.484375 -0.78125 L 2.484375 -3.609375 C 2.484375 -4.128906 2.769531 -4.390625 3.34375 -4.390625 L 6.953125 -4.390625 L 6.953125 -27.859375 L 3.34375 -27.859375 C 2.769531 -27.859375 2.484375 -28.117188 2.484375 -28.640625 L 2.484375 -31.46875 C 2.484375 -31.988281 2.769531 -32.25 3.34375 -32.25 L 11.015625 -32.25 C 11.578125 -32.25 11.859375 -31.988281 11.859375 -31.46875 L 11.859375 -23.265625 L 12.0625 -23.265625 C 12.1875 -23.960938 12.640625 -24.921875 13.421875 -26.140625 C 14.210938 -27.367188 15.078125 -28.382812 16.015625 -29.1875 C 16.960938 -30 18.320312 -30.734375 20.09375 -31.390625 C 21.863281 -32.046875 23.863281 -32.375 26.09375 -32.375 C 26.65625 -32.375 26.9375 -32.09375 26.9375 -31.53125 L 26.9375 -28.046875 C 26.9375 -27.484375 26.65625 -27.203125 26.09375 -27.203125 L 24.71875 -27.203125 C 20.957031 -27.203125 17.960938 -26 15.734375 -23.59375 C 13.503906 -21.1875 12.390625 -18.457031 12.390625 -15.40625 L 12.390625 -4.390625 L 15.859375 -4.390625 C 16.429688 -4.390625 16.71875 -4.128906 16.71875 -3.609375 L 16.71875 -0.78125 C 16.71875 -0.257812 16.429688 0 15.859375 0 Z M 15.859375 0 "/></g></g></g><g fill="#3d2500" fill-opacity="1"><g transform="translate(172.315708, 66.500225)"><g><path d="M 15.859375 0 L 3.34375 0 C 2.769531 0 2.484375 -0.257812 2.484375 -0.78125 L 2.484375 -3.609375 C 2.484375 -4.128906 2.769531 -4.390625 3.34375 -4.390625 L 6.953125 -4.390625 L 6.953125 -27.859375 L 3.34375 -27.859375 C 2.769531 -27.859375 2.484375 -28.117188 2.484375 -28.640625 L 2.484375 -31.46875 C 2.484375 -31.988281 2.769531 -32.25 3.34375 -32.25 L 11.609375 -32.25 C 12.128906 -32.25 12.390625 -31.988281 12.390625 -31.46875 L 12.390625 -4.390625 L 15.859375 -4.390625 C 16.429688 -4.390625 16.71875 -4.128906 16.71875 -3.609375 L 16.71875 -0.78125 C 16.71875 -0.257812 16.429688 0 15.859375 0 Z M 12.15625 -41.9375 C 12.875 -41.195312 13.234375 -40.328125 13.234375 -39.328125 C 13.234375 -38.328125 12.875 -37.472656 12.15625 -36.765625 C 11.4375 -36.066406 10.570312 -35.71875 9.5625 -35.71875 C 8.5625 -35.71875 7.703125 -36.066406 6.984375 -36.765625 C 6.265625 -37.472656 5.90625 -38.328125 5.90625 -39.328125 C 5.90625 -40.328125 6.265625 -41.195312 6.984375 -41.9375 C 7.703125 -42.6875 8.5625 -43.0625 9.5625 -43.0625 C 10.570312 -43.0625 11.4375 -42.6875 12.15625 -41.9375 Z M 12.15625 -41.9375 "/></g></g></g><g fill="#3d2500" fill-opacity="1"><g transform="translate(191.061279, 66.500225)"><g><path d="M 24.390625 -3.34375 C 24.554688 -3.164062 24.640625 -2.976562 24.640625 -2.78125 C 24.640625 -2.582031 24.507812 -2.351562 24.25 -2.09375 C 22.332031 -0.394531 19.921875 0.453125 17.015625 0.453125 C 14.109375 0.453125 11.722656 -0.492188 9.859375 -2.390625 C 8.003906 -4.296875 7.078125 -7.0625 7.078125 -10.6875 L 7.078125 -27.859375 L 3.40625 -27.859375 C 2.789062 -27.859375 2.484375 -28.140625 2.484375 -28.703125 L 2.484375 -31.390625 C 2.484375 -31.960938 2.789062 -32.25 3.40625 -32.25 L 7.078125 -32.25 L 7.078125 -38.875 C 7.078125 -39.476562 7.382812 -39.78125 8 -39.78125 L 11.671875 -39.78125 C 12.234375 -39.78125 12.515625 -39.476562 12.515625 -38.875 L 12.515625 -32.25 L 20.84375 -32.25 C 21.457031 -32.25 21.765625 -31.960938 21.765625 -31.390625 L 21.765625 -28.703125 C 21.765625 -28.140625 21.457031 -27.859375 20.84375 -27.859375 L 12.515625 -27.859375 L 12.515625 -10.8125 C 12.515625 -8.625 13.003906 -6.972656 13.984375 -5.859375 C 14.972656 -4.742188 16.285156 -4.1875 17.921875 -4.1875 C 19.566406 -4.1875 20.800781 -4.601562 21.625 -5.4375 C 22.0625 -5.832031 22.457031 -5.8125 22.8125 -5.375 Z M 24.390625 -3.34375 "/></g></g></g><g fill="#3d2500" fill-opacity="1"><g transform="translate(215.836818, 66.500225)"><g><path d="M 17.109375 -0.71875 C 16.410156 -0.71875 15.84375 -1.265625 15.40625 -2.359375 L 5.375 -27.859375 L 1.765625 -27.859375 C 1.242188 -27.859375 0.984375 -28.117188 0.984375 -28.640625 L 0.984375 -31.46875 C 0.984375 -31.988281 1.242188 -32.25 1.765625 -32.25 L 13.640625 -32.25 C 14.203125 -32.25 14.484375 -31.988281 14.484375 -31.46875 L 14.484375 -28.640625 C 14.484375 -28.117188 14.203125 -27.859375 13.640625 -27.859375 L 10.953125 -27.859375 L 19.40625 -5.640625 L 19.53125 -5.640625 L 27.40625 -27.859375 L 24.453125 -27.859375 C 23.921875 -27.859375 23.65625 -28.117188 23.65625 -28.640625 L 23.65625 -31.46875 C 23.65625 -31.988281 23.921875 -32.25 24.453125 -32.25 L 36.640625 -32.25 C 37.160156 -32.25 37.421875 -31.988281 37.421875 -31.46875 L 37.421875 -28.640625 C 37.421875 -28.117188 37.160156 -27.859375 36.640625 -27.859375 L 32.96875 -27.859375 L 21.296875 4.1875 C 19.859375 8.082031 18.363281 10.914062 16.8125 12.6875 C 15.257812 14.457031 13.140625 15.34375 10.453125 15.34375 C 7.765625 15.34375 5.460938 14.488281 3.546875 12.78125 C 3.109375 12.34375 3.039062 11.953125 3.34375 11.609375 L 4.984375 9.5 C 5.378906 9.195312 5.769531 9.175781 6.15625 9.4375 C 7.207031 10.269531 8.453125 10.6875 9.890625 10.6875 C 11.335938 10.6875 12.53125 10.191406 13.46875 9.203125 C 14.40625 8.222656 15.3125 6.53125 16.1875 4.125 L 17.953125 -0.71875 Z M 17.109375 -0.71875 "/></g></g></g></g></g></g></g></svg>